<?xml version="1.0" encoding="UTF-8" standalone="no"?>
<svg
   xmlns:dc="http://purl.org/dc/elements/1.1/"
   xmlns:cc="http://creativecommons.org/ns#"
   xmlns:rdf="http://www.w3.org/1999/02/22-rdf-syntax-ns#"
   xmlns:svg="http://www.w3.org/2000/svg"
   xmlns="http://www.w3.org/2000/svg"
   viewBox="0 0 1700.7867 1700.7867"
   height="1700.7867"
   width="1700.7867"
   xml:space="preserve"
   id="svg2"
   version="1.1"><metadata
     id="metadata8"><rdf:RDF><cc:Work
         rdf:about=""><dc:format>image/svg+xml</dc:format><dc:type
           rdf:resource="http://purl.org/dc/dcmitype/StillImage" /></cc:Work></rdf:RDF></metadata><defs
     id="defs6"><clipPath
       id="clipPath18"
       clipPathUnits="userSpaceOnUse"><path
         id="path16"
         d="M 0,1275.591 H 1275.591 V 0 H 0 Z" /></clipPath></defs><g
     transform="matrix(1.3333333,0,0,-1.3333333,0,1700.7867)"
     id="g10"><g
       id="g12"><g
         clip-path="url(#clipPath18)"
         id="g14"><g
           transform="translate(588.0044,178.5349)"
           id="g20"><path
             id="path22"
             style="fill:#ffffff;fill-opacity:1;fill-rule:nonzero;stroke:none"
             d="m 0,0 c 0,0 0.285,1.991 1.896,2.907 0,0 0.98,-0.473 1.518,-0.189 0.537,0.285 0.758,1.328 1.927,1.137 1.17,-0.189 3.224,0.885 4.172,1.391 0.948,0.506 2.023,0.79 2.844,1.296 0.822,0.506 5.088,3.95 5.974,4.267 0.884,0.316 -1.707,0.284 -3.666,-1.36 C 12.705,7.807 7.427,5.783 4.994,5.151 2.56,4.52 1.928,4.614 1.296,4.267 0.664,3.919 1.264,3.919 0,3.855 -1.264,3.793 -2.939,3.761 -3.318,3.919 c -0.38,0.158 1.454,1.263 1.77,1.563 0.316,0.301 0.884,1.724 2.18,1.249 1.296,-0.473 1.896,-0.062 2.718,0.601 0.822,0.664 1.422,0.158 3.287,0.822 1.864,0.663 6.637,3.887 8.028,5.752 0,0 0.221,0.348 1.896,0 1.674,-0.347 6.668,-0.474 7.869,0.474 1.201,0.948 0.758,3.792 0.411,5.182 -0.348,1.391 -0.253,4.014 2.054,4.931 0,0 -1.264,1.201 -3.065,1.201 -1.802,0 -5.121,-0.474 -7.396,0.601 -2.275,1.074 -2.749,2.591 -1.896,2.37 0.853,-0.222 1.391,-1.612 4.393,-1.675 3.002,-0.063 6.985,1.074 9.165,0.474 2.181,-0.601 4.519,-2.117 4.519,-2.117 0,0 2.687,1.8 8.533,1.2 5.847,-0.6 4.867,-2.023 8.565,-1.106 3.698,0.916 5.214,2.086 11.63,1.106 0,0 0.601,-0.505 2.339,2.339 1.738,2.844 5.625,3.887 8.027,4.393 2.402,0.505 4.204,3.508 4.994,5.088 0.79,1.58 2.812,3.571 3.697,4.203 0.886,0.632 0.063,0.57 -1.675,0.19 -1.738,-0.379 -4.804,-0.474 -6.7,2.213 0,0 0.063,0.347 0.727,0 0.664,-0.348 4.551,-0.033 5.025,0.948 0.474,0.979 -2.718,1.011 -7.332,-0.569 -4.614,-1.581 -7.68,-1.233 -9.797,-0.159 -2.117,1.076 -3.034,1.96 -2.876,2.403 0.158,0.442 2.055,-1.454 5.625,-1.486 3.571,-0.032 7.048,0.758 7.048,0.758 0,0 -3.097,-0.284 -6.921,0.981 -3.824,1.263 -4.108,2.876 -3.413,2.97 0.695,0.095 3.065,-2.56 9.386,-1.96 6.321,0.601 9.418,1.27 12.041,1.962 2.624,0.694 5.025,-1.962 7.712,-3.731 2.686,-1.77 8.564,-5.31 10.049,-6.1 1.486,-0.79 -0.916,-2.812 -2.053,-2.876 -1.138,-0.063 -0.981,0.79 -2.592,0.696 -1.612,-0.095 -4.773,-0.916 -6.7,-0.98 0,0 -1.833,-1.896 -2.655,-3.445 -0.822,-1.548 -2.939,-5.119 -3.887,-6.384 -0.949,-1.264 -2.055,-1.391 -2.086,-3.16 -0.032,-1.77 0.221,-3.983 -1.011,-5.689 -1.233,-1.707 -2.655,-4.393 -2.213,-5.089 0.442,-0.695 3.856,-1.706 7.522,-1.738 3.666,-0.031 3.097,0.317 5.373,-0.852 2.275,-1.17 5.752,-3.319 8.09,-3.604 2.339,-0.284 3.666,-0.348 4.235,-0.031 0.569,0.316 3.065,-0.19 3.603,-1.233 0.537,-1.043 -1.77,-1.421 -1.77,-1.421 0,0 -1.011,1.611 -1.422,1.105 -0.411,-0.506 0.6,-1.517 0.6,-1.517 0,0 -1.232,-1.359 -1.991,-1.58 -0.759,-0.221 -2.244,2.434 -3.034,2.782 -0.79,0.347 -1.105,-1.012 -2.275,-1.043 -1.169,-0.033 -6.795,2.97 -7.332,3.129 -0.537,0.157 -3.287,0.947 -4.835,1.01 -1.549,0.064 -5.879,0.506 -9.134,0.759 -3.255,0.253 -5.341,0.98 -5.721,1.58 0,0 -1.738,-1.549 -6.542,-1.232 -4.803,0.315 -6.826,1.201 -7.616,1.296 -0.79,0.094 -0.442,-0.317 -1.644,-0.411 -1.201,-0.095 -2.717,0.631 -4.582,0.948 -1.864,0.315 -3.571,1.011 -5.025,0.411 C 41.148,11.82 40.801,10.177 33.816,9.734 26.832,9.292 23.861,8.881 19.816,7.712 15.771,6.542 12.547,3.919 11.314,3.351 10.082,2.781 7.87,2.687 6.447,2.434 5.025,2.181 5.025,0.632 4.52,0.316 4.014,0 1.517,-0.284 0,0" /></g><g
           transform="translate(637.7954,264.0769)"
           id="g24"><path
             id="path26"
             style="fill:#ffffff;fill-opacity:1;fill-rule:nonzero;stroke:none"
             d="m 0,0 c -34.351,0 -62.297,-27.946 -62.297,-62.298 0,-34.35 27.946,-62.297 62.297,-62.297 34.35,0 62.297,27.947 62.297,62.297 C 62.297,-27.946 34.35,0 0,0 m 0,-133.086 c -18.908,0 -36.685,7.363 -50.055,20.733 -13.37,13.371 -20.733,31.147 -20.733,50.055 0,18.908 7.363,36.685 20.733,50.055 C -36.685,1.127 -18.908,8.49 0,8.49 c 18.908,0 36.684,-7.363 50.054,-20.733 13.37,-13.37 20.734,-31.147 20.734,-50.055 0,-18.908 -7.364,-36.684 -20.734,-50.055 C 36.684,-125.723 18.908,-133.086 0,-133.086" /></g><g
           transform="translate(637.7954,307.5954)"
           id="g28"><path
             id="path30"
             style="fill:#ffffff;fill-opacity:1;fill-rule:nonzero;stroke:none"
             d="m 0,0 c -58.347,0 -105.816,-47.469 -105.816,-105.816 0,-58.347 47.469,-105.816 105.816,-105.816 58.347,0 105.816,47.469 105.816,105.816 C 105.816,-47.469 58.347,0 0,0 m 0,-220.123 c -15.43,0 -30.4,3.022 -44.495,8.984 -13.612,5.758 -25.836,13.999 -36.332,24.495 -10.497,10.497 -18.738,22.721 -24.496,36.333 -5.961,14.095 -8.984,29.066 -8.984,44.495 0,15.429 3.023,30.4 8.984,44.495 5.758,13.612 13.999,25.836 24.496,36.333 10.496,10.496 22.72,18.737 36.332,24.495 C -30.4,5.468 -15.43,8.491 0,8.491 c 15.429,0 30.4,-3.023 44.495,-8.984 13.612,-5.758 25.836,-13.999 36.332,-24.495 10.497,-10.497 18.738,-22.721 24.496,-36.333 5.961,-14.095 8.984,-29.066 8.984,-44.495 0,-15.429 -3.023,-30.4 -8.984,-44.495 -5.758,-13.612 -13.999,-25.836 -24.496,-36.333 C 70.331,-197.14 58.107,-205.381 44.495,-211.139 30.4,-217.101 15.429,-220.123 0,-220.123" /></g><g
           transform="translate(555.9351,221.3864)"
           id="g32"><path
             id="path34"
             style="fill:#ffffff;fill-opacity:1;fill-rule:nonzero;stroke:none"
             d="M 0,0 C 0.432,-0.117 0.84,-0.071 1.225,0.141 1.613,0.362 1.866,0.689 1.984,1.12 L 4.935,11.946 10.584,10.406 6.343,-5.153 C 6.036,-6.279 5.38,-7.129 4.376,-7.703 3.372,-8.277 2.308,-8.411 1.182,-8.104 l -18.275,4.982 1.975,7.243 z" /></g><g
           transform="translate(568.1138,256.3933)"
           id="g36"><path
             id="path38"
             style="fill:#ffffff;fill-opacity:1;fill-rule:nonzero;stroke:none"
             d="M 0,0 -2.13,1.464 C -2.822,1.939 -3.432,2.206 -3.96,2.266 -4.73,2.358 -5.35,2.063 -5.82,1.38 l -3.918,-5.703 c -0.475,-0.693 -0.532,-1.381 -0.17,-2.067 0.251,-0.463 0.722,-0.932 1.414,-1.408 l 2.13,-1.464 z m -1.537,-12.577 4.826,-3.317 -4.252,-6.187 -13.131,9.021 c -1.644,1.131 -2.648,2.674 -3.01,4.63 -0.363,1.956 0.021,3.756 1.15,5.401 l 6.698,9.747 c 1.124,1.636 2.664,2.635 4.62,2.998 1.962,0.371 3.765,-0.008 5.41,-1.138 l 13.13,-9.022 -4.252,-6.188 -4.826,3.316 z" /></g><g
           transform="translate(597.8184,282.8757)"
           id="g40"><path
             id="path42"
             style="fill:#ffffff;fill-opacity:1;fill-rule:nonzero;stroke:none"
             d="m 0,0 11.589,5.752 3.062,-6.168 c 0.834,-1.68 0.909,-3.414 0.226,-5.201 -0.634,-1.886 -1.845,-3.273 -3.633,-4.159 L 0.651,-15.034 c -1.777,-0.883 -3.609,-1.007 -5.494,-0.372 -1.896,0.63 -3.284,1.834 -4.167,3.611 l -3.883,7.824 c -0.887,1.787 -1.009,3.626 -0.364,5.517 0.634,1.885 1.84,3.268 3.618,4.151 L 4.675,12.802 7.279,7.557 -4.105,1.906 c -1.133,-0.562 -1.66,-1.329 -1.58,-2.3 0.081,-0.97 0.404,-2.027 0.971,-3.169 l 0.975,-1.963 c 0.562,-1.134 1.206,-2.026 1.93,-2.676 0.823,-0.603 1.751,-0.647 2.787,-0.133 l 4.732,2.35 c 1.045,0.518 1.601,1.238 1.667,2.16 -0.041,0.868 -0.154,1.487 -0.338,1.858 L 2.175,-4.381 Z" /></g><g
           transform="translate(635.5049,290.28)"
           id="g44"><path
             id="path46"
             style="fill:#ffffff;fill-opacity:1;fill-rule:nonzero;stroke:none"
             d="M 0,0 -0.228,2.574 C -0.302,3.41 -0.485,4.051 -0.776,4.496 -1.195,5.148 -1.817,5.438 -2.643,5.365 L -9.535,4.754 C -10.371,4.68 -10.938,4.285 -11.236,3.569 -11.434,3.081 -11.495,2.418 -11.421,1.582 l 0.228,-2.574 z m -10.676,-6.825 0.517,-5.833 -7.479,-0.662 -1.406,15.869 c -0.176,1.987 0.374,3.744 1.651,5.269 1.277,1.526 2.91,2.376 4.897,2.553 l 11.78,1.043 C 1.261,11.59 3.012,11.039 4.537,9.762 6.073,8.485 6.93,6.854 7.106,4.866 l 1.407,-15.869 -7.479,-0.663 -0.517,5.833 z" /></g><g
           transform="translate(650.8594,294.3747)"
           id="g48"><path
             id="path50"
             style="fill:#ffffff;fill-opacity:1;fill-rule:nonzero;stroke:none"
             d="m 0,0 c 0.553,1.918 1.699,3.357 3.44,4.319 1.752,0.96 3.581,1.164 5.489,0.615 L 27.224,-0.339 25.602,-5.965 10.45,-1.599 C 9.329,-1.275 8.424,-1.485 7.732,-2.229 7.137,-2.998 6.661,-3.996 6.309,-5.223 L 5.701,-7.328 c -0.35,-1.216 -0.477,-2.309 -0.383,-3.277 0.19,-0.998 0.845,-1.657 1.966,-1.98 l 15.152,-4.366 -1.623,-5.627 -18.293,5.272 c -1.908,0.55 -3.347,1.697 -4.32,3.441 -0.962,1.741 -1.169,3.565 -0.619,5.472 z" /></g><g
           transform="translate(684.8643,285.7029)"
           id="g52"><path
             id="path54"
             style="fill:#ffffff;fill-opacity:1;fill-rule:nonzero;stroke:none"
             d="M 0,0 C 0.684,0.946 1.596,1.511 2.738,1.694 3.88,1.878 4.919,1.631 5.855,0.953 L 20.264,-9.464 16.833,-14.21 6.401,-6.667 C 6.048,-6.411 5.65,-6.319 5.209,-6.39 4.767,-6.461 4.415,-6.678 4.153,-7.04 l -1.025,-1.418 11.73,-8.482 -2.769,-3.831 -11.731,8.482 -1.955,-2.704 11.731,-8.482 -3.431,-4.745 -17.802,12.871 z" /></g><g
           transform="translate(703.8252,253.9616)"
           id="g56"><path
             id="path58"
             style="fill:#ffffff;fill-opacity:1;fill-rule:nonzero;stroke:none"
             d="m 0,0 c -0.359,-0.266 -0.574,-0.616 -0.646,-1.05 -0.067,-0.442 0.034,-0.843 0.3,-1.202 l 6.682,-9.014 -4.704,-3.487 -9.605,12.956 c -0.694,0.938 -0.957,1.978 -0.787,3.122 0.17,1.144 0.724,2.064 1.661,2.758 l 15.216,11.28 4.472,-6.031 z" /></g><g
           transform="translate(723.8262,222.7497)"
           id="g60"><path
             id="path62"
             style="fill:#ffffff;fill-opacity:1;fill-rule:nonzero;stroke:none"
             d="m 0,0 2.467,0.77 c 0.802,0.25 1.388,0.564 1.762,0.943 0.548,0.548 0.7,1.218 0.453,2.009 l -2.06,6.605 c -0.25,0.802 -0.757,1.272 -1.519,1.41 -0.52,0.09 -1.18,0.01 -1.982,-0.24 l -2.467,-0.769 z m -8.936,8.984 -5.59,-1.744 -2.236,7.168 15.209,4.743 c 1.906,0.594 3.739,0.429 5.5,-0.495 1.762,-0.924 2.941,-2.339 3.534,-4.244 L 11.002,3.123 C 11.594,1.229 11.427,-0.6 10.503,-2.361 9.582,-4.134 8.169,-5.316 6.264,-5.911 l -15.209,-4.743 -2.236,7.167 5.59,1.744 z" /></g><g
           transform="translate(565.9863,144.7751)"
           id="g64"><path
             id="path66"
             style="fill:#ffffff;fill-opacity:1;fill-rule:nonzero;stroke:none"
             d="m 0,0 1.022,-1.234 c 1.184,-1.43 2.676,-1.017 4.332,0.355 1.3,1.076 2.42,2.469 1.048,4.126 L 5.394,4.465 Z M 4.272,11.97 9.868,5.212 C 13.646,0.647 12.834,-3.53 9.796,-6.045 6.499,-8.775 1.995,-8.562 -1.556,-4.272 l -5.608,6.774 z" /></g><g
           transform="translate(586.7603,125.614)"
           id="g68"><path
             id="path70"
             style="fill:#ffffff;fill-opacity:1;fill-rule:nonzero;stroke:none"
             d="m 0,0 c -0.864,-1.091 -2.151,-2.682 -2.589,-3.303 l -4.944,3.915 c 0.134,0.271 0.471,0.731 0.637,0.975 -1.122,-0.16 -2.209,-0.107 -3.912,1.243 -2.067,1.637 -2.348,3.932 -0.646,6.081 l 4.466,5.638 5.043,-3.994 -4.086,-5.16 C -6.594,4.686 -6.687,4.194 -6.274,3.866 -5.762,3.46 -5.249,3.7 -4.542,4.593 L -0.639,9.52 4.387,5.539 Z" /></g><g
           transform="translate(591.1191,127.1433)"
           id="g72"><path
             id="path74"
             style="fill:#ffffff;fill-opacity:1;fill-rule:nonzero;stroke:none"
             d="M 0,0 C 0.572,1.033 1.358,2.454 1.708,3.128 L 7.133,0.125 c -0.172,-0.483 -0.578,-1.392 -0.854,-1.89 0.692,0.509 2.123,1.525 4.429,0.248 L 8.134,-6.167 C 5.843,-4.729 4.813,-4.545 3.413,-7.073 l -1.532,-2.768 -5.61,3.106 z" /></g><g
           transform="translate(607.3115,116.198)"
           id="g76"><path
             id="path78"
             style="fill:#ffffff;fill-opacity:1;fill-rule:nonzero;stroke:none"
             d="m 0,0 c -0.139,0.051 -0.349,0.15 -0.765,0.302 -0.773,0.283 -1.297,0.137 -1.507,-0.437 -0.174,-0.475 0.042,-0.869 0.537,-1.05 0.693,-0.252 1.25,-0.142 1.67,1.007 z M 5.367,-2.703 C 4.693,-4.545 4.126,-6.403 4.108,-6.576 l -5.427,1.983 c 0.063,0.36 0.156,0.797 0.211,1.069 -1.119,-0.602 -2.413,-0.579 -4.136,0.051 -2.357,0.863 -3.618,2.694 -2.829,4.853 0.89,2.435 3.378,2.851 7.399,1.382 C 0.138,2.465 0.375,2.378 0.804,2.198 L 0.97,2.654 C 1.187,3.249 1.159,3.663 0.407,3.938 -0.247,4.177 -0.57,3.846 -0.782,3.452 L -5.971,5.349 C -5.446,6.661 -3.75,8.601 1.52,6.675 6.967,4.684 7.141,2.15 6.496,0.388 Z" /></g><g
           transform="translate(616.4766,116.6824)"
           id="g80"><path
             id="path82"
             style="fill:#ffffff;fill-opacity:1;fill-rule:nonzero;stroke:none"
             d="M 0,0 C 0.166,1.02 0.396,2.435 0.474,3.042 L 6.718,2.025 C 6.73,1.703 6.659,1.138 6.646,0.926 c 0.588,0.46 1.827,1.113 3.867,0.781 2.872,-0.468 4.079,-2.374 3.604,-5.288 l -1.111,-6.827 -6.349,1.034 1.081,6.64 c 0.119,0.728 -0.042,1.181 -0.563,1.266 -0.52,0.085 -0.932,-0.083 -1.152,-1.436 l -1.01,-6.202 -6.327,1.03 z" /></g><g
           transform="translate(639.2354,111.9783)"
           id="g84"><path
             id="path86"
             style="fill:#ffffff;fill-opacity:1;fill-rule:nonzero;stroke:none"
             d="m 0,0 c 0.03,-1.118 0.308,-1.954 1.172,-1.931 0.906,0.027 1.097,0.77 1.059,2.098 C 2.196,1.433 2.028,2.166 1.079,2.14 0.426,2.121 -0.043,1.518 0,0 m 8.517,-4.278 c 0.119,-4.259 -2.203,-5.78 -7.537,-5.928 -6.008,-0.168 -7.087,2.207 -7.298,3.699 l 6.157,0.172 c 0.14,-0.481 0.443,-0.789 1.182,-0.769 0.674,0.019 1.148,0.433 1.112,1.719 l -0.03,1.097 C 1.49,-5.044 0.706,-5.657 -1.339,-5.714 -4.565,-5.804 -6.446,-3.43 -6.532,-0.352 -6.633,3.274 -4.441,5.657 -1.363,5.743 0.682,5.8 1.479,5.189 1.878,4.525 1.891,4.842 1.898,5.307 1.913,5.539 L 8.28,5.717 C 8.29,5.358 8.291,3.797 8.336,2.194 Z" /></g><g
           transform="translate(656.1631,113.738)"
           id="g88"><path
             id="path90"
             style="fill:#ffffff;fill-opacity:1;fill-rule:nonzero;stroke:none"
             d="m 0,0 c 0.421,-1.916 0.86,-2.64 1.561,-2.486 0.7,0.154 0.764,0.945 0.357,2.798 -0.439,2 -0.761,2.684 -1.544,2.512 C -0.244,2.688 -0.447,2.039 0,0 M 8.307,1.801 C 9.075,-1.701 7.212,-4.528 2.145,-5.64 c -5.439,-1.193 -7.89,1.616 -8.451,4.17 -0.723,3.296 0.966,6.323 6.035,7.435 5.087,1.116 7.958,-1.342 8.578,-4.164" /></g><g
           transform="translate(668.1055,108.8904)"
           id="g92"><path
             id="path94"
             style="fill:#ffffff;fill-opacity:1;fill-rule:nonzero;stroke:none"
             d="M 0,0 C 0.035,2.036 -0.407,5.178 -1.071,7.586 L 3.656,9.333 C 4.267,6.77 4.171,3.317 3.68,1.359 Z" /></g><g
           transform="translate(692.0693,127.9216)"
           id="g96"><path
             id="path98"
             style="fill:#ffffff;fill-opacity:1;fill-rule:nonzero;stroke:none"
             d="M 0,0 C -1.15,1.718 -2.864,4.429 -3.786,6.07 L -3.855,6.023 C -2.797,3.229 -1.316,-0.043 0.366,-4.604 L -3.7,-7.325 c -3.429,3.491 -5.558,6.025 -7.844,8.303 l -0.053,-0.037 c 1.015,-1.401 2.822,-3.72 4.253,-5.858 l 2.241,-3.348 -4.784,-3.203 -8.261,12.338 7.624,5.105 c 0.791,-0.841 3.388,-3.621 5.428,-5.986 l 0.035,0.025 C -6.3,2.736 -7.641,6.027 -8.229,7.512 L -0.692,12.559 7.569,0.221 2.241,-3.348 Z" /></g><g
           transform="translate(698.6172,143.3679)"
           id="g100"><path
             id="path102"
             style="fill:#ffffff;fill-opacity:1;fill-rule:nonzero;stroke:none"
             d="m 0,0 c 0.831,-0.349 2.194,-1.023 2.877,-1.406 l 0.087,0.092 C 2.396,-0.316 1.673,0.944 1.389,1.474 L 5.987,6.355 7.283,-0.051 14.229,-1.32 9.442,-6.402 C 8.099,-5.86 7.07,-5.414 6.632,-5.233 L 6.574,-5.295 c 0.363,-0.631 1.027,-1.893 1.393,-2.674 l -4.656,-4.943 -1.318,6.63 -6.866,1.108 z" /></g><g
           transform="translate(714.0703,144.1003)"
           id="g104"><path
             id="path106"
             style="fill:#ffffff;fill-opacity:1;fill-rule:nonzero;stroke:none"
             d="M 0,0 -4.445,3.176 -1.343,7.518 3.103,4.342 Z" /></g><g
           transform="translate(376.2207,515.6814)"
           id="g108"><path
             id="path110"
             style="fill:#231f20;fill-opacity:1;fill-rule:nonzero;stroke:none"
             d="m 0,0 c 0,0 1.495,10.46 9.962,15.274 0,0 5.147,-2.49 7.97,-0.996 2.822,1.494 3.984,6.974 10.127,5.978 6.143,-0.996 16.935,4.648 21.916,7.305 4.981,2.657 10.626,4.151 14.943,6.807 4.317,2.656 26.731,20.754 31.379,22.414 4.649,1.66 -8.965,1.494 -19.259,-7.139 C 66.744,41.01 39.017,30.384 26.233,27.062 13.449,23.742 10.128,24.24 6.808,22.414 3.487,20.588 6.642,20.588 0,20.256 c -6.641,-0.332 -15.44,-0.498 -17.433,0.332 -1.992,0.83 7.638,6.633 9.298,8.214 1.66,1.582 4.649,9.052 11.456,6.562 6.807,-2.49 9.962,-0.332 14.278,3.155 4.317,3.487 7.472,0.83 17.268,4.317 9.795,3.486 34.866,20.422 42.171,30.217 0,0 1.162,1.827 9.962,0 8.799,-1.826 35.032,-2.49 41.341,2.491 6.309,4.98 3.985,19.923 2.159,27.228 -1.827,7.306 -1.329,21.086 10.792,25.901 0,0 -6.642,6.309 -16.105,6.309 -9.464,0 -26.897,-2.49 -38.851,3.155 -11.954,5.645 -14.445,13.614 -9.962,12.452 4.483,-1.162 7.305,-8.467 23.078,-8.799 15.773,-0.332 36.693,5.645 48.149,2.49 11.456,-3.155 23.742,-11.124 23.742,-11.124 0,0 14.113,9.464 44.828,6.309 30.716,-3.154 25.569,-10.626 44.995,-5.811 19.425,4.815 27.395,10.958 61.099,5.811 0,0 3.154,-2.656 12.286,12.286 9.132,14.943 29.553,20.422 42.172,23.079 12.618,2.656 22.081,18.429 26.232,26.731 4.15,8.301 14.776,18.761 19.426,22.082 4.648,3.32 0.332,2.988 -8.8,0.996 -9.132,-1.993 -25.236,-2.491 -35.198,11.622 0,0 0.332,1.826 3.818,0 3.486,-1.827 23.908,-0.166 26.399,4.981 2.491,5.147 -14.279,5.313 -38.519,-2.989 -24.24,-8.301 -40.346,-6.475 -51.47,-0.83 -11.124,5.645 -15.938,10.294 -15.108,12.618 0.83,2.325 10.792,-7.637 29.554,-7.803 18.76,-0.166 37.024,3.985 37.024,3.985 0,0 -16.27,-1.495 -36.36,5.146 -20.09,6.642 -21.584,15.109 -17.932,15.607 3.652,0.498 16.106,-13.448 49.312,-10.294 33.205,3.155 49.476,6.668 63.256,10.307 13.781,3.64 26.399,-10.307 40.512,-19.604 14.112,-9.298 44.994,-27.893 52.797,-32.044 7.804,-4.151 -4.814,-14.777 -10.792,-15.109 -5.977,-0.332 -5.146,4.151 -13.614,3.653 -8.468,-0.498 -25.071,-4.815 -35.198,-5.147 0,0 -9.63,-9.962 -13.947,-18.097 -4.317,-8.136 -15.441,-26.897 -20.422,-33.538 -4.98,-6.642 -10.792,-7.306 -10.958,-16.603 -0.166,-9.298 1.162,-20.92 -5.312,-29.886 -6.476,-8.966 -13.947,-23.078 -11.622,-26.73 2.324,-3.654 20.255,-8.966 39.514,-9.132 19.26,-0.166 16.272,1.66 28.226,-4.483 11.954,-6.143 30.217,-17.433 42.503,-18.927 12.286,-1.494 19.26,-1.827 22.248,-0.166 2.989,1.66 16.105,-0.996 18.928,-6.476 2.822,-5.478 -9.298,-7.471 -9.298,-7.471 0,0 -5.313,8.467 -7.472,5.811 -2.158,-2.656 3.155,-7.97 3.155,-7.97 0,0 -6.475,-7.138 -10.459,-8.301 -3.986,-1.163 -11.789,12.785 -15.94,14.611 -4.15,1.826 -5.81,-5.314 -11.954,-5.48 -6.143,-0.166 -35.696,15.608 -38.519,16.438 -2.822,0.83 -17.267,4.98 -25.402,5.312 -8.136,0.332 -30.882,2.657 -47.983,3.986 -17.101,1.328 -28.059,5.146 -30.051,8.301 0,0 -9.132,-8.135 -34.368,-6.475 -25.237,1.66 -35.863,6.309 -40.014,6.807 -4.15,0.498 -2.324,-1.661 -8.634,-2.159 -6.308,-0.498 -14.278,3.321 -24.073,4.982 -9.796,1.66 -18.762,5.312 -26.399,2.158 C 216.171,62.095 214.345,53.462 177.652,51.138 140.959,48.813 125.353,46.654 104.101,40.512 82.849,34.368 65.914,20.588 59.439,17.6 52.964,14.61 41.342,14.112 33.87,12.784 26.399,11.456 26.399,3.32 23.743,1.66 21.086,0 7.97,-1.494 0,0" /></g><g
           transform="translate(637.7949,965.0715)"
           id="g112"><path
             id="path114"
             style="fill:#231f20;fill-opacity:1;fill-rule:nonzero;stroke:none"
             d="m 0,0 c -180.461,0 -327.276,-146.816 -327.276,-327.277 0,-180.461 146.815,-327.276 327.276,-327.276 180.461,0 327.276,146.815 327.276,327.276 C 327.276,-146.816 180.461,0 0,0 m 0,-699.16 c -99.334,0 -192.722,38.683 -262.961,108.922 -70.24,70.239 -108.922,163.627 -108.922,262.961 0,99.334 38.682,192.722 108.922,262.961 C -192.722,5.924 -99.334,44.606 0,44.606 c 99.334,0 192.722,-38.682 262.961,-108.922 70.24,-70.239 108.922,-163.627 108.922,-262.961 0,-99.334 -38.682,-192.722 -108.922,-262.961 C 192.722,-660.477 99.334,-699.16 0,-699.16" /></g><g
           transform="translate(637.7949,1193.6975)"
           id="g116"><path
             id="path118"
             style="fill:#231f20;fill-opacity:1;fill-rule:nonzero;stroke:none"
             d="m 0,0 c -306.525,0 -555.902,-249.377 -555.902,-555.903 0,-306.525 249.377,-555.901 555.902,-555.901 306.526,0 555.902,249.376 555.902,555.901 C 555.902,-249.377 306.526,0 0,0 m 0,-1156.412 c -81.058,0 -159.704,15.881 -233.752,47.202 -71.511,30.246 -135.729,73.542 -190.872,128.683 -55.142,55.143 -98.438,119.361 -128.685,190.872 -31.319,74.048 -47.2,152.695 -47.2,233.752 0,81.059 15.881,159.704 47.2,233.753 30.247,71.51 73.543,135.729 128.685,190.872 55.143,55.142 119.361,98.438 190.872,128.685 74.048,31.319 152.694,47.2 233.752,47.2 81.059,0 159.704,-15.881 233.752,-47.2 71.511,-30.247 135.729,-73.543 190.872,-128.685 55.143,-55.143 98.438,-119.362 128.685,-190.872 31.32,-74.049 47.201,-152.694 47.201,-233.753 0,-81.057 -15.881,-159.704 -47.201,-233.752 -30.247,-71.511 -73.542,-135.729 -128.685,-190.872 -55.143,-55.141 -119.361,-98.437 -190.872,-128.683 C 159.704,-1140.531 81.059,-1156.412 0,-1156.412" /></g><g
           transform="translate(207.7446,740.7996)"
           id="g120"><path
             id="path122"
             style="fill:#231f20;fill-opacity:1;fill-rule:nonzero;stroke:none"
             d="m 0,0 c 2.267,-0.617 4.412,-0.372 6.436,0.74 2.04,1.165 3.368,2.881 3.986,5.148 L 25.925,62.76 55.605,54.669 33.322,-27.074 C 31.71,-32.989 28.267,-37.453 22.991,-40.468 17.716,-43.483 12.123,-44.185 6.208,-42.573 l -96.004,26.17 10.373,38.054 z" /></g><g
           transform="translate(271.7261,924.7092)"
           id="g124"><path
             id="path126"
             style="fill:#231f20;fill-opacity:1;fill-rule:nonzero;stroke:none"
             d="m 0,0 -11.189,7.688 c -3.636,2.499 -6.842,3.902 -9.618,4.212 -4.046,0.486 -7.301,-1.067 -9.767,-4.654 l -20.584,-29.958 c -2.499,-3.637 -2.796,-7.255 -0.892,-10.856 1.317,-2.434 3.794,-4.9 7.428,-7.398 l 11.19,-7.689 z m -8.077,-66.076 25.354,-17.423 -22.337,-32.507 -68.981,47.399 c -8.64,5.937 -13.913,14.044 -15.818,24.319 -1.906,10.276 0.109,19.734 6.046,28.374 l 35.185,51.205 c 5.904,8.593 13.994,13.842 24.27,15.748 C -14.05,52.991 -4.576,51 4.065,45.063 L 73.046,-2.336 50.709,-34.844 25.354,-17.422 Z" /></g><g
           transform="translate(427.7783,1063.8313)"
           id="g128"><path
             id="path130"
             style="fill:#231f20;fill-opacity:1;fill-rule:nonzero;stroke:none"
             d="M 0,0 60.884,30.22 76.968,-2.185 c 4.381,-8.826 4.777,-17.934 1.188,-27.326 C 74.823,-39.416 68.46,-46.699 59.07,-51.36 L 3.42,-78.981 c -9.339,-4.636 -18.96,-5.287 -28.865,-1.953 -9.957,3.308 -17.252,9.631 -21.888,18.971 l -20.401,41.102 c -4.661,9.39 -5.3,19.051 -1.913,28.981 3.333,9.905 9.668,17.175 19.008,21.811 l 75.2,37.325 13.678,-27.555 -59.807,-29.684 c -5.953,-2.956 -8.718,-6.983 -8.297,-12.082 0.421,-5.1 2.121,-10.65 5.101,-16.654 l 5.119,-10.314 c 2.956,-5.953 6.335,-10.638 10.143,-14.056 4.32,-3.165 9.2,-3.396 14.639,-0.697 l 24.862,12.341 c 5.49,2.724 8.409,6.507 8.756,11.349 -0.217,4.56 -0.809,7.815 -1.777,9.766 L 11.423,-23.014 Z" /></g><g
           transform="translate(625.7637,1102.7292)"
           id="g132"><path
             id="path134"
             style="fill:#231f20;fill-opacity:1;fill-rule:nonzero;stroke:none"
             d="m 0,0 -1.199,13.524 c -0.388,4.393 -1.348,7.759 -2.878,10.097 -2.202,3.428 -5.472,4.95 -9.808,4.566 l -36.206,-3.209 c -4.395,-0.39 -7.374,-2.464 -8.938,-6.227 -1.039,-2.565 -1.362,-6.044 -0.973,-10.438 l 1.198,-13.524 z m -56.088,-35.854 2.715,-30.643 -39.288,-3.481 -7.387,83.369 c -0.926,10.443 1.966,19.671 8.675,27.684 6.709,8.013 15.285,12.483 25.727,13.408 l 61.885,5.484 c 10.385,0.921 19.584,-1.974 27.598,-8.683 8.07,-6.703 12.568,-15.277 13.494,-25.72 l 7.387,-83.368 -39.287,-3.482 -2.716,30.643 z" /></g><g
           transform="translate(706.4277,1124.2444)"
           id="g136"><path
             id="path138"
             style="fill:#231f20;fill-opacity:1;fill-rule:nonzero;stroke:none"
             d="m 0,0 c 2.903,10.073 8.929,17.637 18.076,22.692 9.202,5.039 18.813,6.114 28.831,3.227 l 96.111,-27.7 -8.519,-29.56 -79.598,22.94 c -5.89,1.698 -10.648,0.595 -14.277,-3.307 -3.134,-4.046 -5.628,-9.289 -7.484,-15.729 l -3.189,-11.064 c -1.841,-6.387 -2.511,-12.125 -2.011,-17.217 0.996,-5.235 4.437,-8.701 10.329,-10.399 l 79.595,-22.94 -8.519,-29.56 -96.111,27.7 c -10.018,2.888 -17.583,8.913 -22.691,18.076 -5.055,9.148 -6.139,18.729 -3.251,28.749 z" /></g><g
           transform="translate(885.0684,1078.6868)"
           id="g140"><path
             id="path142"
             style="fill:#231f20;fill-opacity:1;fill-rule:nonzero;stroke:none"
             d="m 0,0 c 3.592,4.968 8.387,7.933 14.387,8.897 5.998,0.964 11.458,-0.332 16.38,-3.89 l 75.692,-54.729 -18.025,-24.929 -54.803,39.624 c -1.857,1.343 -3.945,1.827 -6.264,1.455 -2.321,-0.373 -4.168,-1.511 -5.544,-3.414 l -5.387,-7.452 61.627,-44.558 -14.552,-20.124 -61.626,44.559 -10.271,-14.206 61.625,-44.558 -18.023,-24.93 -93.52,67.619 z" /></g><g
           transform="translate(984.6836,911.9343)"
           id="g144"><path
             id="path146"
             style="fill:#231f20;fill-opacity:1;fill-rule:nonzero;stroke:none"
             d="m 0,0 c -1.888,-1.399 -3.021,-3.237 -3.399,-5.515 -0.347,-2.324 0.181,-4.429 1.58,-6.316 L 33.286,-59.187 8.572,-77.506 -41.884,-9.442 c -3.651,4.925 -5.029,10.391 -4.137,16.401 0.894,6.01 3.801,10.841 8.726,14.492 L 42.643,80.709 66.132,49.024 Z" /></g><g
           transform="translate(1089.7559,747.9612)"
           id="g148"><path
             id="path150"
             style="fill:#231f20;fill-opacity:1;fill-rule:nonzero;stroke:none"
             d="m 0,0 12.962,4.043 c 4.21,1.312 7.295,2.965 9.255,4.957 2.883,2.879 3.675,6.397 2.379,10.553 l -10.822,34.7 C 12.461,58.464 9.8,60.935 5.791,61.665 3.063,62.134 -0.404,61.712 -4.615,60.399 l -12.961,-4.043 z m -46.944,47.198 -29.369,-9.16 -11.743,37.654 79.901,24.919 c 10.008,3.121 19.639,2.255 28.894,-2.601 9.256,-4.854 15.444,-12.285 18.566,-22.293 L 57.801,16.407 C 60.905,6.454 60.03,-3.15 55.176,-12.406 50.338,-21.714 42.916,-27.931 32.907,-31.052 l -79.899,-24.919 -11.743,37.653 29.367,9.159 z" /></g><g
           transform="translate(260.5483,338.3239)"
           id="g152"><path
             id="path154"
             style="fill:#231f20;fill-opacity:1;fill-rule:nonzero;stroke:none"
             d="m 0,0 5.37,-6.486 c 6.218,-7.51 14.056,-5.337 22.761,1.87 6.827,5.653 12.709,12.968 5.503,21.674 l -5.3,6.4 z M 22.446,62.886 51.839,27.383 C 71.693,3.401 67.424,-18.545 51.464,-31.757 34.141,-46.101 10.482,-44.975 -8.172,-22.445 l -29.463,35.589 z" /></g><g
           transform="translate(369.6855,237.6628)"
           id="g156"><path
             id="path158"
             style="fill:#231f20;fill-opacity:1;fill-rule:nonzero;stroke:none"
             d="M 0,0 C -4.542,-5.733 -11.302,-14.09 -13.604,-17.354 L -39.576,3.217 c 0.703,1.423 2.473,3.835 3.349,5.12 -5.896,-0.841 -11.608,-0.558 -20.554,6.527 -10.858,8.601 -12.336,20.656 -3.392,31.948 l 23.459,29.618 26.493,-20.983 -21.465,-27.1 c -2.958,-3.735 -3.447,-6.315 -1.276,-8.035 2.692,-2.133 5.386,-0.874 9.101,3.816 L -3.359,50.012 23.046,29.099 Z" /></g><g
           transform="translate(392.5835,245.695)"
           id="g160"><path
             id="path162"
             style="fill:#231f20;fill-opacity:1;fill-rule:nonzero;stroke:none"
             d="m 0,0 c 3.005,5.429 7.137,12.893 8.973,16.436 l 28.5,-15.778 c -0.901,-2.541 -3.035,-7.311 -4.484,-9.929 3.634,2.674 11.149,8.013 23.266,1.304 L 42.731,-32.395 c -12.033,7.548 -17.447,8.518 -24.8,-4.761 l -8.049,-14.541 -29.47,16.313 z" /></g><g
           transform="translate(477.6504,188.196)"
           id="g164"><path
             id="path166"
             style="fill:#231f20;fill-opacity:1;fill-rule:nonzero;stroke:none"
             d="m 0,0 c -0.728,0.267 -1.834,0.789 -4.021,1.587 -4.058,1.484 -6.813,0.722 -7.917,-2.296 -0.913,-2.498 0.22,-4.563 2.821,-5.514 3.642,-1.332 6.569,-0.749 8.774,5.286 z m 28.194,-14.199 c -3.538,-9.678 -6.516,-19.443 -6.613,-20.35 l -28.512,10.423 c 0.334,1.883 0.821,4.182 1.107,5.61 -5.874,-3.161 -12.67,-3.035 -21.723,0.274 -12.384,4.527 -19.013,14.145 -14.867,25.488 4.679,12.799 17.746,14.983 38.87,7.262 4.266,-1.561 5.515,-2.016 7.766,-2.958 l 0.875,2.394 c 1.141,3.121 0.993,5.298 -2.961,6.744 -3.434,1.255 -5.131,-0.484 -6.242,-2.555 l -27.264,9.966 c 2.757,6.895 11.672,17.086 39.351,6.967 28.617,-10.46 29.532,-23.77 26.146,-33.032 z" /></g><g
           transform="translate(525.7988,190.737)"
           id="g168"><path
             id="path170"
             style="fill:#231f20;fill-opacity:1;fill-rule:nonzero;stroke:none"
             d="M 0,0 C 0.872,5.358 2.083,12.794 2.49,15.982 L 35.294,10.643 C 35.355,8.949 34.984,5.979 34.915,4.867 38.002,7.283 44.51,10.713 55.227,8.969 70.316,6.513 76.656,-3.5 74.164,-18.808 l -5.839,-35.866 -33.351,5.43 5.678,34.881 c 0.623,3.828 -0.224,6.211 -2.957,6.655 -2.734,0.445 -4.898,-0.438 -6.055,-7.545 l -5.305,-32.585 -33.242,5.411 z" /></g><g
           transform="translate(645.3584,166.0251)"
           id="g172"><path
             id="path174"
             style="fill:#231f20;fill-opacity:1;fill-rule:nonzero;stroke:none"
             d="m 0,0 c 0.163,-5.871 1.617,-10.264 6.158,-10.139 4.763,0.135 5.762,4.041 5.568,11.02 -0.185,6.644 -1.069,10.5 -6.053,10.361 C 2.238,11.146 -0.223,7.975 0,0 m 44.744,-22.475 c 0.624,-22.374 -11.567,-30.362 -39.59,-31.142 -31.568,-0.882 -37.237,11.597 -38.342,19.436 l 32.343,0.904 c 0.736,-2.531 2.332,-4.149 6.209,-4.04 3.544,0.098 6.033,2.273 5.845,9.031 l -0.161,5.76 c -3.214,-3.971 -7.337,-7.19 -18.081,-7.488 -16.946,-0.474 -26.827,11.997 -27.278,28.169 -0.532,19.051 10.98,31.567 27.151,32.018 10.744,0.3 14.935,-2.91 17.027,-6.399 0.066,1.665 0.108,4.105 0.185,5.327 l 33.45,0.932 c 0.052,-1.883 0.06,-10.086 0.294,-18.503 z" /></g><g
           transform="translate(734.292,175.2732)"
           id="g176"><path
             id="path178"
             style="fill:#231f20;fill-opacity:1;fill-rule:nonzero;stroke:none"
             d="m 0,0 c 2.208,-10.066 4.518,-13.869 8.197,-13.062 3.68,0.808 4.016,4.964 1.878,14.704 -2.304,10.499 -4,14.095 -8.112,13.194 C -1.284,14.124 -2.351,10.713 0,0 m 43.638,9.46 c 4.036,-18.398 -5.75,-33.249 -32.373,-39.09 -28.571,-6.269 -41.451,8.487 -44.394,21.906 -3.799,17.318 5.076,33.216 31.699,39.058 26.731,5.864 41.815,-7.047 45.068,-21.874" /></g><g
           transform="translate(797.0303,149.8034)"
           id="g180"><path
             id="path182"
             style="fill:#231f20;fill-opacity:1;fill-rule:nonzero;stroke:none"
             d="m 0,0 c 0.182,10.697 -2.139,27.204 -5.631,39.852 l 24.839,9.179 C 22.412,35.567 21.909,17.428 19.331,7.144 Z" /></g><g
           transform="translate(922.9209,249.7849)"
           id="g184"><path
             id="path186"
             style="fill:#231f20;fill-opacity:1;fill-rule:nonzero;stroke:none"
             d="m 0,0 c -6.042,9.023 -15.045,23.265 -19.887,31.89 l -0.368,-0.246 C -14.693,16.965 -6.914,-0.228 1.924,-24.182 l -21.361,-14.302 c -18.015,18.34 -29.198,31.655 -41.207,43.618 l -0.277,-0.187 c 5.332,-7.365 14.822,-19.546 22.344,-30.777 l 11.775,-17.586 -25.135,-16.831 -43.402,64.817 40.051,26.819 c 4.157,-4.418 17.801,-19.018 28.521,-31.443 l 0.184,0.124 c -6.514,14.307 -13.556,31.596 -16.645,39.395 l 39.59,26.51 43.403,-64.818 -27.99,-18.743 z" /></g><g
           transform="translate(957.3223,330.9294)"
           id="g188"><path
             id="path190"
             style="fill:#231f20;fill-opacity:1;fill-rule:nonzero;stroke:none"
             d="m 0,0 c 4.366,-1.83 11.526,-5.377 15.114,-7.387 l 0.456,0.484 C 12.591,-1.662 8.787,4.966 7.293,7.743 L 31.452,33.392 38.26,-0.267 74.751,-6.935 49.604,-33.631 c -7.061,2.845 -12.461,5.193 -14.763,6.142 l -0.304,-0.323 c 1.902,-3.314 5.393,-9.951 7.318,-14.047 l -24.462,-25.971 -6.921,34.831 -36.075,5.818 z" /></g><g
           transform="translate(1038.5029,334.778)"
           id="g192"><path
             id="path194"
             style="fill:#231f20;fill-opacity:1;fill-rule:nonzero;stroke:none"
             d="M 0,0 -23.352,16.686 -7.052,39.495 16.3,22.81 Z" /></g></g></g></g></svg>